#!OML:ASF E:\Steps\Project 1\Capture day 1\Session 2\Subject.ASF
:FULLY-SPECIFIED
:DEGREES
67
root 16.4543 16.3053 21.1508 -155.494 -2.17572 177.108
lowerback -32.2709 -2.72247 -8.64141
upperback -1.1649 -1.14022 -0.0882882
thorax 15.5807 -1.4253 3.99436
lowerneck -6.35215 -3.35399 0.073879
upperneck 10.0443 -4.96464 2.19726
head 4.52533 -2.41299 0.427823
rclavicle 5.36719e-015 -2.70347e-014
rhumerus -34.8596 -22.67 -77.3333
rradius 26.5966
rwrist 1.14678
rhand -6.51596 -54.6994
rfingers 7.12502
rthumb 19.3363 -83.758
lclavicle 5.36719e-015 -2.70347e-014
lhumerus -29.1269 7.78054 81.6201
lradius 18.7021
lwrist -6.96199
lhand -22.7882 -12.873
lfingers 7.12502
lthumb 3.64768 17.0756
rfemur -20.5852 6.49927 19.6055
rtibia 7.07608
rfoot -18.8688 -0.236883
rtoes -13.0696
lfemur -22.9424 -9.6313 -22.6194
ltibia 10.933
lfoot -8.97089 2.72742
ltoes -44.9792
68
root 16.4481 16.306 21.1494 -155.477 -2.15658 176.955
lowerback -32.2855 -2.74367 -8.74202
upperback -1.18038 -1.12705 -0.152933
thorax 15.5637 -1.42622 3.98087
lowerneck -6.29269 -3.31472 0.0395371
upperneck 10.0273 -4.91788 2.27619
head 4.51022 -2.38892 0.464518
rclavicle 1.75924e-014 -3.97569e-015
rhumerus -35.0089 -22.7151 -77.2752
rradius 26.6957
rwrist 1.29873
rhand -6.50913 -54.6695
rfingers 7.12502
rthumb 19.3429 -83.7275
lclavicle 1.75924e-014 -3.97569e-015
lhumerus -29.1573 7.72158 81.6166
lradius 18.735
lwrist -7.02777
lhand -22.7907 -12.6251
lfingers 7.12502
lthumb 3.64519 17.3234
rfemur -20.63 6.28507 19.4296
rtibia 7.14951
rfoot -18.9041 -0.100516
rtoes -13.749
lfemur -22.9472 -9.6491 -22.8469
ltibia 10.9586
lfoot -9.01266 2.6806
ltoes -44.3911
69
root 16.4419 16.3026 21.1481 -155.616 -2.29336 177.129
lowerback -32.1789 -2.69314 -8.50606
upperback -1.15432 -1.14786 -0.128842
thorax 15.5535 -1.41469 3.87701
lowerneck -6.1948 -3.26842 -0.0299044
upperneck 9.96751 -4.86114 2.40455
head 4.4743 -2.35943 0.525662
rclavicle -3.95085e-015 3.57812e-015
rhumerus -35.0081 -22.9343 -77.2049
rradius 26.5905
rwrist 1.40134
rhand -6.48515 -54.5449
rfingers 7.12502
rthumb 19.3659 -83.6005
lclavicle -3.95085e-015 3.57812e-015
lhumerus -29.1402 7.51828 81.6573
lradius 18.8051
lwrist -6.84997
lhand -22.741 -12.413
lfingers 7.12502
lthumb 3.69325 17.5348
rfemur -20.4811 6.09892 19.7029
rtibia 7.21408
rfoot -18.9302 0.0731224
rtoes -13.7912
lfemur -22.7832 -9.56595 -22.696
ltibia 10.9368
lfoot -9.01782 2.51547
ltoes -44.703
70
root 16.4404 16.3042 21.1452 -155.55 -2.20752 176.894
lowerback -32.3172 -2.75834 -8.78607
upperback -1.13166 -1.11225 -0.191406
thorax 15.6323 -1.42308 3.96753
lowerneck -6.2081 -3.25768 0.029205
upperneck 10.0675 -4.85775 2.37143
head 4.51044 -2.35797 0.503122
rclavicle 6.11263e-015 -4.37326e-015
rhumerus -34.8865 -23.1855 -77.1679
rradius 26.346
rwrist 1.4285
rhand -6.46066 -54.3713
rfingers 7.12502
rthumb 19.3895 -83.4246
lclavicle 6.11263e-015 -4.37326e-015
lhumerus -29.0975 7.38633 81.6658
lradius 18.8493
lwrist -6.66651
lhand -22.7334 -12.2297
lfingers 7.12502
lthumb 3.70056 17.7179
rfemur -20.5496 6.14163 19.3741
rtibia 7.2325
rfoot -18.9546 -0.0146065
rtoes -13.8096
lfemur -22.8222 -9.53124 -22.984
ltibia 10.9165
lfoot -9.0365 2.39119
ltoes -44.5331
71
root 16.4392 16.3052 21.1456 -155.565 -2.22339 176.917
lowerback -32.3093 -2.78809 -8.79655
upperback -1.12704 -1.14969 -0.167885
thorax 15.6402 -1.44058 3.9834
lowerneck -6.26901 -3.24725 0.10947
upperneck 10.2365 -4.84866 2.23521
head 4.57737 -2.357 0.440925
rclavicle 4.52235e-015 2.90226e-014
rhumerus -34.8272 -23.1823 -77.1816
rradius 26.2586
rwrist 1.36771
rhand -6.45594 -54.2603
rfingers 7.12502
rthumb 19.394 -83.3131
lclavicle 4.52235e-015 2.90226e-014
lhumerus -29.0622 7.54926 81.6081
lradius 18.8132
lwrist -6.75586
lhand -22.981 -12.0751
lfingers 7.12502
lthumb 3.46146 17.8766
rfemur -20.487 6.19891 19.3904
rtibia 7.12131
rfoot -18.9305 -0.0882612
rtoes -13.8469
lfemur -22.8335 -9.52207 -22.9483
ltibia 10.9498
lfoot -9.05145 2.35982
ltoes -44.1468
72
root 16.4374 16.3072 21.1461 -155.553 -2.20108 176.898
lowerback -32.3101 -2.81044 -8.82958
upperback -1.14165 -1.16991 -0.17534
thorax 15.6252 -1.45196 3.98364
lowerneck -6.3255 -3.25154 0.25206
upperneck 10.3129 -4.85713 2.08713
head 4.60762 -2.36231 0.363482
rclavicle -1.44119e-015 -1.15295e-014
rhumerus -34.8601 -23.0993 -77.2218
rradius 26.3064
rwrist 1.38143
rhand -6.45965 -54.2208
rfingers 7.12502
rthumb 19.3904 -83.274
lclavicle -1.44119e-015 -1.15295e-014
lhumerus -29.0533 7.75974 81.4822
lradius 18.7584
lwrist -6.98531
lhand -23.0676 -12.1888
lfingers 7.12502
lthumb 3.37778 17.7642
rfemur -20.5045 6.00423 19.38
rtibia 7.09122
rfoot -18.9014 0.113433
rtoes -13.853
lfemur -22.8739 -9.49981 -22.9836
ltibia 11.0089
lfoot -9.06408 2.34646
ltoes -43.8041
